<?xml version="1.0" encoding="UTF-8" standalone="no"?>
<!-- Created with Inkscape (http://www.inkscape.org/) -->

<svg
   xmlns:dc="http://purl.org/dc/elements/1.1/"
   xmlns:cc="http://creativecommons.org/ns#"
   xmlns:rdf="http://www.w3.org/1999/02/22-rdf-syntax-ns#"
   xmlns:svg="http://www.w3.org/2000/svg"
   xmlns="http://www.w3.org/2000/svg"
   xmlns:sodipodi="http://sodipodi.sourceforge.net/DTD/sodipodi-0.dtd"
   xmlns:inkscape="http://www.inkscape.org/namespaces/inkscape"
   width="256"
   height="256"
   viewBox="0 0 256 256"
   id="svg2"
   version="1.1"
   inkscape:version="0.91 r13725"
   sodipodi:docname="hotpotatoes.svg">
  <defs
     id="defs4" />
  <sodipodi:namedview
     id="base"
     pagecolor="#ffffff"
     bordercolor="#666666"
     borderopacity="1.0"
     inkscape:pageopacity="0.0"
     inkscape:pageshadow="2"
     inkscape:zoom="0.24748737"
     inkscape:cx="162.61729"
     inkscape:cy="-226.73675"
     inkscape:document-units="px"
     inkscape:current-layer="svg2"
     showgrid="false"
     units="px"
     showguides="true"
     inkscape:guide-bbox="true"
     inkscape:snap-intersection-paths="false"
     inkscape:snap-midpoints="true"
     inkscape:window-width="868"
     inkscape:window-height="1003"
     inkscape:window-x="3"
     inkscape:window-y="24"
     inkscape:window-maximized="0">
    <sodipodi:guide
       position="128.92857,237.85714"
       orientation="0,1"
       id="guide4147" />
    <sodipodi:guide
       position="18.214286,162.14286"
       orientation="1,0"
       id="guide4149" />
    <sodipodi:guide
       position="237.85714,66.785714"
       orientation="1,0"
       id="guide4151" />
    <sodipodi:guide
       position="198.21429,17.5"
       orientation="0,1"
       id="guide4153" />
  </sodipodi:namedview>
  <metadata
     id="metadata7">
    <rdf:RDF>
      <cc:Work
         rdf:about="">
        <dc:format>image/svg+xml</dc:format>
        <dc:type
           rdf:resource="http://purl.org/dc/dcmitype/StillImage" />
        <dc:title />
      </cc:Work>
    </rdf:RDF>
  </metadata>
  <g
     inkscape:label="Capa 1"
     inkscape:groupmode="layer"
     id="layer1"
     transform="translate(0,-796.36216)">
    <g
       id="g25467"
       transform="matrix(0.74931131,0,0,0.74931131,16.188013,814.9821)">
      <g
         id="Capa_1-0">
        <linearGradient
           gradientTransform="matrix(0.9954,0,0,-0.9999,609.2166,2066.5017)"
           y2="2067.1211"
           x2="-461.33939"
           y1="1771.0918"
           x1="-461.33939"
           gradientUnits="userSpaceOnUse"
           id="rect3438-6-0-6-7-2_60_-68">
          <stop
             id="stop25318"
             style="stop-color:#000000"
             offset="0" />
          <stop
             id="stop25320"
             style="stop-color:#000000;stop-opacity:0.5882"
             offset="1" />
        </linearGradient>
        <path
           style="opacity:0.45;fill:url(#rect3438-6-0-6-7-2_60_-68)"
           d="m 71.598,-0.412 156.805,0 c 37.43,0 67.772,30.583 67.772,68.308 l 0,159.384 c 0,37.725 -30.343,68.308 -67.772,68.308 l -156.805,0 c -37.43,0 -67.773,-30.583 -67.773,-68.308 l 0,-159.384 C 3.824,30.17 34.168,-0.412 71.598,-0.412 Z"
           enable-background="new    "
           id="rect3438-6-0-6-7-2_15_"
           inkscape:connector-curvature="0" />
        <linearGradient
           gradientTransform="matrix(0.9867,0,0,-0.9918,600.2651,2056.9424)"
           y2="2074.3652"
           x2="-456.3345"
           y1="1777.6816"
           x1="-456.3345"
           gradientUnits="userSpaceOnUse"
           id="rect3438-6-0-1-1_60_-71">
          <stop
             id="stop25324"
             style="stop-color:#000000"
             offset="0" />
          <stop
             id="stop25326"
             style="stop-color:#000000;stop-opacity:0.5882"
             offset="1" />
        </linearGradient>
        <path
           style="opacity:0.45;fill:url(#rect3438-6-0-1-1_60_-71)"
           d="m 72.323,-0.412 155.354,0 c 37.127,0 67.224,30.402 67.224,67.904 l 0,158.442 c 0,37.502 -30.097,67.904 -67.224,67.904 l -155.354,0 c -37.127,0 -67.224,-30.401 -67.224,-67.904 l 0,-158.442 C 5.1,29.99 35.196,-0.412 72.323,-0.412 Z"
           enable-background="new    "
           id="rect3438-6-0-1-1_15_"
           inkscape:connector-curvature="0" />
        <g
           id="rect3438-6_15_">
          <linearGradient
             gradientTransform="matrix(0.9996,0,0,-0.9996,-615.9543,1324.7201)"
             y2="1032.9316"
             x2="766.2832"
             y1="1325.251"
             x1="766.2832"
             gradientUnits="userSpaceOnUse"
             id="XMLID_140_-00">
            <stop
               id="stop25331"
               style="stop-color:#E3C167"
               offset="0" />
            <stop
               id="stop25333"
               style="stop-color:#C28543"
               offset="1" />
          </linearGradient>
          <path
             style="fill:url(#XMLID_140_-00)"
             d="m 71.354,0 157.34,0 c 37.24,0 67.431,30.19 67.431,67.431 l 0,157.339 c 0,37.241 -30.19,67.432 -67.431,67.432 l -157.34,0 c -37.241,0 -67.432,-30.19 -67.432,-67.432 l 0,-157.339 C 3.922,30.19 34.112,0 71.354,0 Z"
             id="XMLID_3856_"
             inkscape:connector-curvature="0" />
        </g>
        <g
           id="XMLID_1656_"
           style="opacity:0.25">
          <g
             id="XMLID_1657_">
            <linearGradient
               y2="193.082"
               x2="154.60451"
               y1="199.2075"
               x1="154.60451"
               gradientUnits="userSpaceOnUse"
               id="XMLID_144_-7">
              <stop
                 id="stop25339"
                 style="stop-color:#000000"
                 offset="0" />
              <stop
                 id="stop25341"
                 style="stop-color:#000000;stop-opacity:0.5882"
                 offset="1" />
            </linearGradient>
            <path
               style="clip-rule:evenodd;fill:url(#XMLID_144_-7);fill-rule:evenodd"
               d="m 148.42,195.813 c 1.46,2.661 3.624,3.611 6.365,3.354 3.115,-0.288 4.632,-2.768 6.004,-6.085 -3.712,3.26 -4.11,3.343 -12.369,2.731 z"
               id="XMLID_1670_"
               inkscape:connector-curvature="0" />
            <linearGradient
               y2="124.1992"
               x2="189.08299"
               y1="131.1143"
               x1="189.08299"
               gradientUnits="userSpaceOnUse"
               id="XMLID_157_-80">
              <stop
                 id="stop25345"
                 style="stop-color:#000000"
                 offset="0" />
              <stop
                 id="stop25347"
                 style="stop-color:#000000;stop-opacity:0.5882"
                 offset="1" />
            </linearGradient>
            <path
               style="clip-rule:evenodd;fill:url(#XMLID_157_-80);fill-rule:evenodd"
               d="m 189.844,124.52 c -0.925,-0.645 -1.634,-0.282 -2.233,0.765 -0.751,1.308 -0.931,5.845 -0.213,5.829 1.597,-0.041 2.29,-1.879 3.319,-2.748 1.04,-1.964 0.342,-2.999 -0.873,-3.846 z"
               id="XMLID_1669_"
               inkscape:connector-curvature="0" />
            <linearGradient
               y2="155.6694"
               x2="179.22459"
               y1="164.27831"
               x1="179.22459"
               gradientUnits="userSpaceOnUse"
               id="XMLID_231_-15">
              <stop
                 id="stop25351"
                 style="stop-color:#000000"
                 offset="0" />
              <stop
                 id="stop25353"
                 style="stop-color:#000000;stop-opacity:0.5882"
                 offset="1" />
            </linearGradient>
            <path
               style="clip-rule:evenodd;fill:url(#XMLID_231_-15);fill-rule:evenodd"
               d="m 179.307,155.669 c 1.031,3.396 -0.119,6.157 -2.667,8.609 2.28,-0.672 4.344,-1.499 5.062,-4.184 0.447,-1.666 -0.505,-3.35 -2.395,-4.425 z"
               id="XMLID_1668_"
               inkscape:connector-curvature="0" />
            <linearGradient
               y2="131.1143"
               x2="160.4209"
               y1="137.46629"
               x1="160.4209"
               gradientUnits="userSpaceOnUse"
               id="XMLID_248_-88">
              <stop
                 id="stop25357"
                 style="stop-color:#000000"
                 offset="0" />
              <stop
                 id="stop25359"
                 style="stop-color:#000000;stop-opacity:0.5882"
                 offset="1" />
            </linearGradient>
            <path
               style="clip-rule:evenodd;fill:url(#XMLID_248_-88);fill-rule:evenodd"
               d="m 157.356,137.466 c 1.256,-2.953 3.155,-5.042 6.4,-6.272 -5.205,-0.561 -7.505,1.872 -6.4,6.272 z"
               id="XMLID_1667_"
               inkscape:connector-curvature="0" />
            <linearGradient
               y2="164.27831"
               x2="122.8262"
               y1="171.25"
               x1="122.8262"
               gradientUnits="userSpaceOnUse"
               id="XMLID_279_-90">
              <stop
                 id="stop25363"
                 style="stop-color:#000000"
                 offset="0" />
              <stop
                 id="stop25365"
                 style="stop-color:#000000;stop-opacity:0.5882"
                 offset="1" />
            </linearGradient>
            <path
               style="clip-rule:evenodd;fill:url(#XMLID_279_-90);fill-rule:evenodd"
               d="m 124.467,164.278 c -1.69,1.451 -3.144,2.55 -3.275,4.416 -0.107,1.522 1.07,2.108 2.533,2.556 -0.229,-1.305 -0.705,-2.238 -0.39,-3.348 0.299,-1.056 0.653,-2.1 1.132,-3.624 z"
               id="XMLID_1666_"
               inkscape:connector-curvature="0" />
            <linearGradient
               y2="171.25"
               x2="146.0918"
               y1="181.15331"
               x1="146.0918"
               gradientUnits="userSpaceOnUse"
               id="XMLID_280_-18">
              <stop
                 id="stop25369"
                 style="stop-color:#000000"
                 offset="0" />
              <stop
                 id="stop25371"
                 style="stop-color:#000000;stop-opacity:0.5882"
                 offset="1" />
            </linearGradient>
            <path
               style="clip-rule:evenodd;fill:url(#XMLID_280_-18);fill-rule:evenodd"
               d="m 144.816,171.25 c 0.326,1.854 0.999,3.179 0.554,4.757 -0.429,1.5 -0.929,2.982 -1.61,5.146 2.401,-2.059 4.465,-3.622 4.655,-6.273 0.153,-2.163 -1.522,-2.995 -3.599,-3.63 z"
               id="XMLID_1665_"
               inkscape:connector-curvature="0" />
            <linearGradient
               y2="156.5928"
               x2="148.418"
               y1="159.9736"
               x1="148.418"
               gradientUnits="userSpaceOnUse"
               id="XMLID_281_-796">
              <stop
                 id="stop25375"
                 style="stop-color:#000000"
                 offset="0" />
              <stop
                 id="stop25377"
                 style="stop-color:#000000;stop-opacity:0.5882"
                 offset="1" />
            </linearGradient>
            <path
               style="clip-rule:evenodd;fill:url(#XMLID_281_-796);fill-rule:evenodd"
               d="m 148.649,159.4 c 0.435,-0.476 0.9,0.018 1.343,0.12 0.519,-0.706 -0.129,-1.217 -0.026,-1.854 -0.238,-0.199 -0.514,-0.36 -0.699,-0.606 -0.71,-0.947 -1.489,-0.249 -2.144,0.285 -0.679,0.556 -0.532,1.32 -0.213,1.936 0.418,0.802 0.942,0.991 1.739,0.119 z"
               id="XMLID_1664_"
               inkscape:connector-curvature="0" />
            <linearGradient
               y2="178.74271"
               x2="168.4453"
               y1="182.1235"
               x1="168.4453"
               gradientUnits="userSpaceOnUse"
               id="XMLID_470_-1">
              <stop
                 id="stop25381"
                 style="stop-color:#000000"
                 offset="0" />
              <stop
                 id="stop25383"
                 style="stop-color:#000000;stop-opacity:0.5882"
                 offset="1" />
            </linearGradient>
            <path
               style="clip-rule:evenodd;fill:url(#XMLID_470_-1);fill-rule:evenodd"
               d="m 169.993,179.817 c -0.239,-0.2 -0.516,-0.36 -0.7,-0.606 -0.711,-0.947 -1.488,-0.249 -2.144,0.285 -0.679,0.555 -0.532,1.32 -0.213,1.935 0.419,0.803 0.941,0.993 1.738,0.12 0.437,-0.477 0.903,0.018 1.345,0.12 0.519,-0.706 -0.128,-1.218 -0.026,-1.854 z"
               id="XMLID_1663_"
               inkscape:connector-curvature="0" />
            <linearGradient
               y2="50.358398"
               x2="149.74409"
               y1="232.87109"
               x1="149.74409"
               gradientUnits="userSpaceOnUse"
               id="XMLID_471_-9">
              <stop
                 id="stop25387"
                 style="stop-color:#000000"
                 offset="0" />
              <stop
                 id="stop25389"
                 style="stop-color:#000000;stop-opacity:0.5882"
                 offset="1" />
            </linearGradient>
            <path
               style="clip-rule:evenodd;fill:url(#XMLID_471_-9);fill-rule:evenodd"
               d="m 149.744,50.358 c -50.398,0 -91.257,40.856 -91.257,91.256 0,50.399 40.858,91.256 91.257,91.256 50.397,0 91.256,-40.857 91.256,-91.256 0,-50.399 -40.858,-91.256 -91.256,-91.256 z m -11.634,14.691 8.234,7.206 c -6.453,7.378 -4.312,10.144 0.383,16.204 5.117,6.601 12.847,16.577 -0.352,31.917 l -8.296,-7.139 c 7.369,-8.564 4.905,-11.743 -0.002,-18.074 -4.922,-6.352 -12.36,-15.952 0.033,-30.114 z m -21.956,16.467 8.234,7.207 c -6.454,7.378 -4.313,10.144 0.383,16.203 5.117,6.601 12.848,16.577 -0.354,31.917 l -8.294,-7.139 c 7.369,-8.563 4.905,-11.742 -0.003,-18.074 -4.921,-6.352 -12.359,-15.952 0.034,-30.114 z m 77.889,83.835 -10.38,17.763 -3.161,5.548 c 0.191,1.267 -7.197,9.288 -14.314,16.419 -11.654,9.205 -20.938,5.157 -26.875,3.901 -17.427,-2.51 -27.806,-29.687 -27.997,-30.956 0,0 -5.394,-12.377 4.769,-25.662 5.67,-5.016 16.09,-10.488 20.236,-14.345 4.549,-4.337 22.442,-21.706 22.442,-21.706 0,0 3.847,-4.658 9.177,-8.875 18.41,-2.893 25.538,5.643 29.259,11.68 l 4.405,8.687 c 3.496,11.401 2.919,17.471 -7.561,37.546 z"
               id="XMLID_1658_"
               inkscape:connector-curvature="0" />
          </g>
        </g>
        <g
           id="XMLID_1684_"
           style="opacity:0.25">
          <g
             id="XMLID_1685_">
            <linearGradient
               y2="195.3423"
               x2="154.60451"
               y1="201.46831"
               x1="154.60451"
               gradientUnits="userSpaceOnUse"
               id="XMLID_487_-2">
              <stop
                 id="stop25395"
                 style="stop-color:#000000"
                 offset="0" />
              <stop
                 id="stop25397"
                 style="stop-color:#000000;stop-opacity:0.5882"
                 offset="1" />
            </linearGradient>
            <path
               style="clip-rule:evenodd;fill:url(#XMLID_487_-2);fill-rule:evenodd"
               d="m 148.42,198.073 c 1.46,2.661 3.624,3.611 6.365,3.354 3.115,-0.288 4.632,-2.768 6.004,-6.085 -3.712,3.26 -4.11,3.344 -12.369,2.731 z"
               id="XMLID_1698_"
               inkscape:connector-curvature="0" />
            <linearGradient
               y2="126.4595"
               x2="189.08299"
               y1="133.3745"
               x1="189.08299"
               gradientUnits="userSpaceOnUse"
               id="XMLID_488_-82">
              <stop
                 id="stop25401"
                 style="stop-color:#000000"
                 offset="0" />
              <stop
                 id="stop25403"
                 style="stop-color:#000000;stop-opacity:0.5882"
                 offset="1" />
            </linearGradient>
            <path
               style="clip-rule:evenodd;fill:url(#XMLID_488_-82);fill-rule:evenodd"
               d="m 189.844,126.78 c -0.925,-0.645 -1.634,-0.281 -2.233,0.766 -0.751,1.307 -0.931,5.845 -0.213,5.829 1.597,-0.041 2.29,-1.878 3.319,-2.748 1.04,-1.965 0.342,-3 -0.873,-3.847 z"
               id="XMLID_1697_"
               inkscape:connector-curvature="0" />
            <linearGradient
               y2="157.9297"
               x2="179.22459"
               y1="166.5386"
               x1="179.22459"
               gradientUnits="userSpaceOnUse"
               id="XMLID_553_-7">
              <stop
                 id="stop25407"
                 style="stop-color:#000000"
                 offset="0" />
              <stop
                 id="stop25409"
                 style="stop-color:#000000;stop-opacity:0.5882"
                 offset="1" />
            </linearGradient>
            <path
               style="clip-rule:evenodd;fill:url(#XMLID_553_-7);fill-rule:evenodd"
               d="m 179.307,157.93 c 1.031,3.396 -0.119,6.157 -2.667,8.609 2.28,-0.672 4.344,-1.498 5.062,-4.184 0.447,-1.667 -0.505,-3.35 -2.395,-4.425 z"
               id="XMLID_1696_"
               inkscape:connector-curvature="0" />
            <linearGradient
               y2="133.3745"
               x2="160.4209"
               y1="139.72659"
               x1="160.4209"
               gradientUnits="userSpaceOnUse"
               id="XMLID_564_-45">
              <stop
                 id="stop25413"
                 style="stop-color:#000000"
                 offset="0" />
              <stop
                 id="stop25415"
                 style="stop-color:#000000;stop-opacity:0.5882"
                 offset="1" />
            </linearGradient>
            <path
               style="clip-rule:evenodd;fill:url(#XMLID_564_-45);fill-rule:evenodd"
               d="m 157.356,139.727 c 1.256,-2.953 3.155,-5.042 6.4,-6.272 -5.205,-0.562 -7.505,1.872 -6.4,6.272 z"
               id="XMLID_1695_"
               inkscape:connector-curvature="0" />
            <linearGradient
               y2="166.5386"
               x2="122.8262"
               y1="173.5103"
               x1="122.8262"
               gradientUnits="userSpaceOnUse"
               id="XMLID_598_-5">
              <stop
                 id="stop25419"
                 style="stop-color:#000000"
                 offset="0" />
              <stop
                 id="stop25421"
                 style="stop-color:#000000;stop-opacity:0.5882"
                 offset="1" />
            </linearGradient>
            <path
               style="clip-rule:evenodd;fill:url(#XMLID_598_-5);fill-rule:evenodd"
               d="m 124.467,166.539 c -1.69,1.451 -3.144,2.55 -3.275,4.416 -0.107,1.522 1.07,2.109 2.533,2.556 -0.229,-1.305 -0.705,-2.238 -0.39,-3.348 0.299,-1.057 0.653,-2.101 1.132,-3.624 z"
               id="XMLID_1694_"
               inkscape:connector-curvature="0" />
            <linearGradient
               y2="173.5103"
               x2="146.0918"
               y1="183.4136"
               x1="146.0918"
               gradientUnits="userSpaceOnUse"
               id="XMLID_603_-4">
              <stop
                 id="stop25425"
                 style="stop-color:#000000"
                 offset="0" />
              <stop
                 id="stop25427"
                 style="stop-color:#000000;stop-opacity:0.5882"
                 offset="1" />
            </linearGradient>
            <path
               style="clip-rule:evenodd;fill:url(#XMLID_603_-4);fill-rule:evenodd"
               d="m 144.816,173.51 c 0.326,1.854 0.999,3.179 0.554,4.757 -0.429,1.5 -0.929,2.982 -1.61,5.146 2.401,-2.059 4.465,-3.622 4.655,-6.273 0.153,-2.162 -1.522,-2.994 -3.599,-3.63 z"
               id="XMLID_1693_"
               inkscape:connector-curvature="0" />
            <linearGradient
               y2="158.85249"
               x2="148.418"
               y1="162.23441"
               x1="148.418"
               gradientUnits="userSpaceOnUse"
               id="XMLID_606_-81">
              <stop
                 id="stop25431"
                 style="stop-color:#000000"
                 offset="0" />
              <stop
                 id="stop25433"
                 style="stop-color:#000000;stop-opacity:0.5882"
                 offset="1" />
            </linearGradient>
            <path
               style="clip-rule:evenodd;fill:url(#XMLID_606_-81);fill-rule:evenodd"
               d="m 148.649,161.66 c 0.435,-0.476 0.9,0.019 1.343,0.121 0.519,-0.706 -0.129,-1.217 -0.026,-1.854 -0.238,-0.2 -0.514,-0.36 -0.699,-0.607 -0.71,-0.947 -1.489,-0.249 -2.144,0.285 -0.679,0.556 -0.532,1.32 -0.213,1.936 0.418,0.803 0.942,0.992 1.739,0.119 z"
               id="XMLID_1692_"
               inkscape:connector-curvature="0" />
            <linearGradient
               y2="181.0034"
               x2="168.4453"
               y1="184.38429"
               x1="168.4453"
               gradientUnits="userSpaceOnUse"
               id="XMLID_607_-25">
              <stop
                 id="stop25437"
                 style="stop-color:#000000"
                 offset="0" />
              <stop
                 id="stop25439"
                 style="stop-color:#000000;stop-opacity:0.5882"
                 offset="1" />
            </linearGradient>
            <path
               style="clip-rule:evenodd;fill:url(#XMLID_607_-25);fill-rule:evenodd"
               d="m 169.993,182.077 c -0.239,-0.2 -0.516,-0.36 -0.7,-0.606 -0.711,-0.947 -1.488,-0.249 -2.144,0.285 -0.679,0.555 -0.532,1.32 -0.213,1.935 0.419,0.804 0.941,0.993 1.738,0.12 0.437,-0.476 0.903,0.018 1.345,0.121 0.519,-0.707 -0.128,-1.219 -0.026,-1.855 z"
               id="XMLID_1691_"
               inkscape:connector-curvature="0" />
            <linearGradient
               y2="52.618698"
               x2="149.74409"
               y1="235.1313"
               x1="149.74409"
               gradientUnits="userSpaceOnUse"
               id="XMLID_608_-5">
              <stop
                 id="stop25443"
                 style="stop-color:#000000"
                 offset="0" />
              <stop
                 id="stop25445"
                 style="stop-color:#000000;stop-opacity:0.5882"
                 offset="1" />
            </linearGradient>
            <path
               style="clip-rule:evenodd;fill:url(#XMLID_608_-5);fill-rule:evenodd"
               d="m 149.744,52.619 c -50.398,0 -91.257,40.857 -91.257,91.256 0,50.399 40.858,91.256 91.257,91.256 50.397,0 91.256,-40.857 91.256,-91.256 0,-50.399 -40.858,-91.256 -91.256,-91.256 z m -11.634,14.69 8.234,7.206 c -6.453,7.378 -4.312,10.144 0.383,16.204 5.117,6.601 12.847,16.577 -0.352,31.917 l -8.296,-7.139 c 7.369,-8.563 4.905,-11.742 -0.002,-18.074 -4.922,-6.352 -12.36,-15.952 0.033,-30.114 z m -21.956,16.467 8.234,7.207 c -6.454,7.378 -4.313,10.144 0.383,16.203 5.117,6.602 12.848,16.577 -0.354,31.918 l -8.294,-7.14 c 7.369,-8.563 4.905,-11.742 -0.003,-18.074 -4.921,-6.352 -12.359,-15.952 0.034,-30.114 z m 77.889,83.835 -10.38,17.763 -3.161,5.548 c 0.191,1.267 -7.197,9.288 -14.314,16.419 -11.654,9.205 -20.938,5.157 -26.875,3.901 -17.427,-2.51 -27.806,-29.687 -27.997,-30.955 0,0 -5.394,-12.377 4.769,-25.663 5.67,-5.016 16.09,-10.488 20.236,-14.345 4.549,-4.337 22.442,-21.706 22.442,-21.706 0,0 3.847,-4.658 9.177,-8.875 18.41,-2.893 25.538,5.643 29.259,11.68 l 4.405,8.686 c 3.496,11.402 2.919,17.472 -7.561,37.547 z"
               id="XMLID_1686_"
               inkscape:connector-curvature="0" />
          </g>
        </g>
        <g
           id="XMLID_1268_">
          <g
             id="XMLID_1269_">
            <path
               d="m 148.42,193.553 c 1.46,2.661 3.624,3.611 6.365,3.354 3.115,-0.288 4.632,-2.768 6.004,-6.085 -3.712,3.259 -4.11,3.343 -12.369,2.731 z"
               id="XMLID_1300_"
               inkscape:connector-curvature="0"
               style="clip-rule:evenodd;fill:#ffffff;fill-rule:evenodd" />
            <path
               d="m 189.844,122.26 c -0.925,-0.645 -1.634,-0.282 -2.233,0.765 -0.751,1.307 -0.931,5.845 -0.213,5.829 1.597,-0.04 2.29,-1.878 3.319,-2.748 1.04,-1.964 0.342,-3 -0.873,-3.846 z"
               id="XMLID_1295_"
               inkscape:connector-curvature="0"
               style="clip-rule:evenodd;fill:#ffffff;fill-rule:evenodd" />
            <path
               d="m 179.307,153.409 c 1.031,3.396 -0.119,6.157 -2.667,8.609 2.28,-0.672 4.344,-1.499 5.062,-4.184 0.447,-1.667 -0.505,-3.35 -2.395,-4.425 z"
               id="XMLID_1289_"
               inkscape:connector-curvature="0"
               style="clip-rule:evenodd;fill:#ffffff;fill-rule:evenodd" />
            <path
               d="m 157.356,135.206 c 1.256,-2.953 3.155,-5.043 6.4,-6.272 -5.205,-0.561 -7.505,1.872 -6.4,6.272 z"
               id="XMLID_1288_"
               inkscape:connector-curvature="0"
               style="clip-rule:evenodd;fill:#ffffff;fill-rule:evenodd" />
            <path
               d="m 124.467,162.018 c -1.69,1.451 -3.144,2.55 -3.275,4.416 -0.107,1.522 1.07,2.108 2.533,2.555 -0.229,-1.304 -0.705,-2.238 -0.39,-3.348 0.299,-1.055 0.653,-2.099 1.132,-3.623 z"
               id="XMLID_1287_"
               inkscape:connector-curvature="0"
               style="clip-rule:evenodd;fill:#ffffff;fill-rule:evenodd" />
            <path
               d="m 144.816,168.989 c 0.326,1.854 0.999,3.18 0.554,4.757 -0.429,1.5 -0.929,2.982 -1.61,5.146 2.401,-2.06 4.465,-3.622 4.655,-6.273 0.153,-2.162 -1.522,-2.994 -3.599,-3.63 z"
               id="XMLID_1286_"
               inkscape:connector-curvature="0"
               style="clip-rule:evenodd;fill:#ffffff;fill-rule:evenodd" />
            <path
               d="m 148.649,157.14 c 0.435,-0.477 0.9,0.018 1.343,0.12 0.519,-0.706 -0.129,-1.217 -0.026,-1.854 -0.238,-0.199 -0.514,-0.36 -0.699,-0.606 -0.71,-0.947 -1.489,-0.249 -2.144,0.285 -0.679,0.556 -0.532,1.32 -0.213,1.935 0.418,0.803 0.942,0.992 1.739,0.12 z"
               id="XMLID_1285_"
               inkscape:connector-curvature="0"
               style="clip-rule:evenodd;fill:#ffffff;fill-rule:evenodd" />
            <path
               d="m 169.993,177.557 c -0.239,-0.2 -0.516,-0.36 -0.7,-0.606 -0.711,-0.947 -1.488,-0.249 -2.144,0.285 -0.679,0.555 -0.532,1.32 -0.213,1.935 0.419,0.804 0.941,0.993 1.738,0.12 0.437,-0.476 0.903,0.019 1.345,0.121 0.519,-0.708 -0.128,-1.219 -0.026,-1.855 z"
               id="XMLID_1284_"
               inkscape:connector-curvature="0"
               style="clip-rule:evenodd;fill:#ffffff;fill-rule:evenodd" />
            <path
               d="m 149.744,48.098 c -50.398,0 -91.257,40.856 -91.257,91.256 0,50.399 40.858,91.256 91.257,91.256 50.397,0 91.256,-40.857 91.256,-91.256 0,-50.399 -40.858,-91.256 -91.256,-91.256 z m -11.634,14.69 8.234,7.206 c -6.453,7.378 -4.312,10.144 0.383,16.203 5.117,6.602 12.847,16.577 -0.352,31.918 l -8.296,-7.139 c 7.369,-8.564 4.905,-11.743 -0.002,-18.075 -4.922,-6.351 -12.36,-15.95 0.033,-30.113 z m -21.956,16.467 8.234,7.207 c -6.454,7.378 -4.313,10.144 0.383,16.203 5.117,6.601 12.848,16.577 -0.354,31.917 l -8.294,-7.14 c 7.369,-8.563 4.905,-11.742 -0.003,-18.074 -4.921,-6.35 -12.359,-15.951 0.034,-30.113 z m 77.889,83.836 -10.38,17.763 -3.161,5.547 c 0.191,1.267 -7.197,9.288 -14.314,16.419 -11.654,9.205 -20.938,5.157 -26.875,3.901 -17.427,-2.51 -27.806,-29.687 -27.997,-30.956 0,0 -5.394,-12.377 4.769,-25.662 5.67,-5.017 16.09,-10.488 20.236,-14.345 4.549,-4.337 22.442,-21.706 22.442,-21.706 0,0 3.847,-4.657 9.177,-8.875 18.41,-2.893 25.538,5.643 29.259,11.68 l 4.405,8.686 c 3.496,11.402 2.919,17.472 -7.561,37.548 z"
               id="XMLID_1277_"
               inkscape:connector-curvature="0"
               style="clip-rule:evenodd;fill:#ffffff;fill-rule:evenodd" />
          </g>
        </g>
      </g>
      <g
         display="none"
         id="Capa_2-37"
         style="display:none" />
      <g
         display="none"
         id="Capa_3-4"
         style="display:none" />
    </g>
  </g>
</svg>
